<svg width="362" height="85" viewBox="0 0 362 85" fill="none" xmlns="http://www.w3.org/2000/svg">
<path d="M203.539 0.401611L158.269 6.34874V19.841L203.539 15.7836V0.401611Z" fill="#E40038"/>
<path d="M65.2292 49.5349C65.2292 57.7192 67.6482 60.5679 75.4303 60.5679C83.2124 60.5679 85.6037 57.7888 85.6037 49.5349C85.6037 41.2813 83.2541 38.5022 75.4303 38.5022C67.6067 38.5022 65.2292 41.309 65.2292 49.5349ZM51.5585 49.41C51.5585 34.4032 59.8522 27.5527 75.4303 27.5527C91.0086 27.5527 99.3575 34.4032 99.3575 49.41C99.3575 64.4168 91.0638 71.5171 75.4303 71.5171C59.797 71.5171 51.5585 64.4168 51.5585 49.41Z" fill="#00234D"/>
<path d="M194.969 31.3183L158.269 6.30701V19.7853L169.715 27.5666L171.968 28.9561C169.134 28.8176 166.325 29.5441 163.909 31.0405C158.256 34.4726 155.325 40.5031 155.325 49.4239C155.325 64.4306 163.619 71.531 179.211 71.531C194.803 71.531 203.193 64.4168 203.193 49.4097C203.193 40.7254 200.332 34.792 194.969 31.3183ZM179.211 60.4982C171.429 60.4982 168.996 57.7192 168.996 49.4655C168.996 41.2116 171.429 38.4328 179.211 38.4328C186.993 38.4328 189.371 41.2116 189.371 49.4655C189.371 57.7192 187.035 60.5676 179.211 60.5676V60.4982Z" fill="#00234D"/>
<path d="M28.0048 27.4695C22.3857 27.5764 17.0358 29.9084 13.1177 33.9584V28.4005H0V84.8427H13.0348V64.792C16.9663 68.842 22.3345 71.1604 27.9634 71.2393C40.307 71.2393 47.0801 64.5001 47.0801 49.3404C47.0801 34.181 40.307 27.4695 28.0048 27.4695ZM23.3327 60.3037C15.5505 60.3037 13.1177 57.5247 13.1177 49.271C13.1177 41.0173 15.5505 38.2383 23.3327 38.2383C31.1147 38.2383 33.4923 41.0173 33.4923 49.271C33.4923 57.5247 31.1564 60.3037 23.3327 60.3037Z" fill="#00234D"/>
<path d="M292.805 28.4977V43.7964H275.514V28.4977H262.396V69.9053H275.514V54.3984H292.805V69.9053H305.923V28.4977H292.805Z" fill="#00234D"/>
<path d="M207.644 49.3404C207.644 64.5001 214.431 71.2393 226.761 71.2393C232.39 71.1634 237.76 68.8445 241.689 64.792V69.9192H254.725V28.4422H241.606V34.0003C237.691 29.9242 232.327 27.5756 226.692 27.4695C214.431 27.4695 207.644 34.2087 207.644 49.3404ZM221.232 49.3404C221.232 41.1145 223.568 38.3077 231.392 38.3077C239.215 38.3077 241.606 41.0867 241.606 49.3404C241.606 57.5943 239.174 60.3734 231.392 60.3734C223.609 60.3734 221.232 57.4553 221.232 49.271V49.3404Z" fill="#00234D"/>
<path d="M137.411 54.6068C136.402 58.9281 133.624 60.5679 127.735 60.5679C119.953 60.5679 117.534 57.7888 117.534 49.5349C117.534 41.2813 119.953 38.5022 127.735 38.5022C133.665 38.5022 136.444 40.114 137.411 44.4633L151.096 43.4212C149.05 32.583 141.06 27.5527 127.708 27.5527C112.102 27.5527 103.836 34.4032 103.836 49.41C103.836 64.4168 112.06 71.5171 127.708 71.5171C141.033 71.5171 148.953 66.3761 151.054 55.635L137.411 54.6068Z" fill="#00234D"/>
<path d="M361.435 69.9053L340.673 48.1593L360.33 28.4977H344.102L326.491 46.4781V28.4977H313.608V69.9053H326.491V55.4266V51.8417V50.8412L344.572 69.9053H361.435Z" fill="#00234D"/>
</svg>
